PathFileType	4	(X/Y/Z)	output.trc
DataRate	CameraRate	NumFrames	NumMarkers	Units	OrigDataRate	OrigDataStartFrame	OrigNumFrames
120	120	10	18	mm	120	2541	1
Frame#	Time	K4ABT_JOINT_PELVISx			K4ABT_JOINT_SPINE_NAVEL			T8			C7			K4ABT_JOINT_CLAVICLE_LEFT			K4ABT_JOINT_SHOULDER_LEFT			K4ABT_JOINT_ELBOW_LEFT			K4ABT_JOINT_WRIST_LEFT			K4ABT_JOINT_HAND_LEFT			K4ABT_JOINT_HANDTIP_LEFT			K4ABT_JOINT_THUMB_LEFT			K4ABT_JOINT_CLAVICLE_RIGHT			GH			Elbow_Midpoint			Wrist_Midpointx			K4ABT_JOINT_HAND_RIGHT			K4ABT_JOINT_HANDTIP_RIGHT			K4ABT_JOINT_THUMB_RIGHTx
		X1	Y1	Z1	X2	Y2	Z2	X3	Y3	Z3	X4	Y4	Z4	X5	Y5	Z5	X6	Y6	Z6	X7	Y7	Z7	X8	Y8	Z8	X9	Y9	Z9	X10	Y10	Z10	X11	Y11	Z11	X12	Y12	Z12	X13	Y13	Z13	X14	Y14	Z14	X15	Y15	Z15	X16	Y16	Z16	X17	Y17	Z17	X18	Y18	Z18
2541	30.314380	-249.601438	-256.232774	1555.463899	267.556698	-102.761862	1511.399467	268.369114	20.577411	1475.521474	251.333605	210.825758	1433.699346	244.763856	185.053631	1468.932859	194.555279	174.466388	1587.009358	124.801720	-11.450113	1737.055717	-15.210284	-163.862194	1765.387477	-16.041077	-237.611409	1719.372354	-90.197854	-176.003641	1732.352287	-124.755587	-211.115522	1794.428686	265.271570	174.033849	1412.971006	294.946493	134.648117	1305.293068	493.618590	-22.572992	1294.481967	657.856629	-155.552539	1285.612748	652.271198	-247.281048	1269.261464	707.742303	-311.605769	1225.301308	650.212011	-243.946855	1244.505068
2542	30.322679	-249.709332	-256.418915	1555.413622	267.631158	-102.827757	1511.395260	268.430838	20.600326	1475.541378	251.320747	210.984095	1433.812005	244.763433	185.173244	1469.053053	194.241539	174.636905	1587.084355	125.012641	-11.413026	1737.464455	-14.947964	-164.003970	1766.061680	-15.996668	-237.660080	1719.868423	-90.448366	-176.338504	1733.043336	-124.850428	-211.103326	1794.588301	265.272063	174.186440	1413.045596	294.992647	135.208544	1305.155081	493.808654	-22.110506	1294.820365	657.750997	-155.683229	1286.392358	652.156180	-247.348429	1269.398512	707.669975	-311.551491	1225.197117	650.092329	-244.125959	1245.047338
2543	30.330977	-249.817226	-256.605057	1555.363345	267.705618	-102.893652	1511.391052	268.492562	20.623241	1475.561282	251.307889	211.142432	1433.924663	244.763011	185.292857	1469.173247	193.927800	174.807423	1587.159352	125.223562	-11.375939	1737.873193	-14.685644	-164.145746	1766.735883	-15.952260	-237.708752	1720.364491	-90.698879	-176.673367	1733.734384	-124.945270	-211.091129	1794.747915	265.272556	174.339030	1413.120185	295.038800	135.768970	1305.017094	493.998718	-21.648020	1295.158762	657.645365	-155.813920	1287.171968	652.041162	-247.415809	1269.535559	707.597646	-311.497213	1225.092926	649.972647	-244.305063	1245.589608
2544	30.339276	-249.945325	-256.766328	1555.387151	267.779203	-102.925484	1511.418608	268.493561	20.685825	1475.579616	251.339193	211.363598	1433.994200	244.792810	185.483076	1469.259792	193.675184	175.039201	1587.229613	125.361783	-11.328927	1738.194816	-14.567226	-164.267307	1767.183331	-15.936749	-237.779969	1720.673786	-90.883365	-176.898192	1734.208806	-125.079136	-211.080066	1794.865371	265.296894	174.538192	1413.155867	295.076301	136.281588	1304.849872	494.204445	-21.250324	1295.514026	657.644750	-155.939105	1288.003369	652.020572	-247.492887	1269.759400	707.512248	-311.459326	1224.932485	649.904322	-244.419426	1246.106369
2545	30.347575	-250.094689	-256.901422	1555.488930	267.851865	-102.921465	1511.479594	268.430646	20.790162	1475.596297	251.416977	211.650893	1434.018351	244.854416	185.747606	1469.310923	193.486899	175.335453	1587.294889	125.423490	-11.271471	1738.424751	-14.600261	-164.367591	1767.392123	-15.951654	-237.874915	1720.786504	-90.998361	-177.007202	1734.455233	-125.254078	-211.070196	1794.938456	265.346328	174.786370	1413.150597	295.104694	136.743886	1304.651880	494.426655	-20.920819	1295.887044	657.754664	-156.058496	1288.889279	652.099365	-247.580170	1270.074588	707.413093	-311.438690	1224.712842	649.890051	-244.465652	1246.596281
2546	30.355874	-250.244052	-257.036517	1555.590709	267.924528	-102.917447	1511.540581	268.367732	20.894498	1475.612978	251.494761	211.938187	1434.042502	244.916022	186.012136	1469.362053	193.298614	175.631705	1587.360165	125.485197	-11.214014	1738.654686	-14.633296	-164.467876	1767.600914	-15.966559	-237.969862	1720.899222	-91.113357	-177.116212	1734.701659	-125.429019	-211.060325	1795.011541	265.395762	175.034548	1413.145328	295.133088	137.206185	1304.453888	494.648865	-20.591314	1296.260061	657.864578	-156.177886	1289.775190	652.178159	-247.667454	1270.389777	707.313938	-311.418053	1224.493199	649.875779	-244.511878	1247.086193
2547	30.364173	-250.393416	-257.171612	1555.692488	267.997191	-102.913428	1511.601567	268.304818	20.998834	1475.629659	251.572544	212.225482	1434.066654	244.977628	186.276667	1469.413183	193.110329	175.927958	1587.425441	125.546904	-11.156557	1738.884621	-14.666331	-164.568161	1767.809706	-15.981464	-238.064808	1721.011940	-91.228353	-177.225223	1734.948085	-125.603960	-211.050454	1795.084625	265.445196	175.282726	1413.140059	295.161482	137.668484	1304.255896	494.871075	-20.261809	1296.633078	657.974492	-156.297277	1290.661101	652.256952	-247.754738	1270.704965	707.214784	-311.397417	1224.273557	649.861508	-244.558104	1247.576105
2548	30.372472	-250.489719	-257.251264	1555.796493	268.037184	-102.901826	1511.662049	268.231966	21.075420	1475.646591	251.656583	212.428052	1434.066338	245.041435	186.469701	1469.434145	192.999245	176.186232	1587.458109	125.574903	-11.054707	1739.023282	-14.723586	-164.559542	1767.909160	-15.981564	-238.083463	1721.094095	-91.312458	-177.267769	1735.089141	-125.721553	-211.032795	1795.124302	265.499043	175.451764	1413.124212	295.188613	137.979696	1304.106405	495.030878	-20.043155	1296.904033	658.074486	-156.366658	1291.307365	652.357632	-247.811557	1271.001829	707.192117	-311.397519	1224.230477	649.902530	-244.569801	1247.954197
2549	30.380771	-250.526343	-257.268557	1555.903002	268.040431	-102.881694	1511.721965	268.147939	21.120794	1475.663807	251.747657	212.535332	1434.038504	245.107717	186.582321	1469.421175	192.974990	176.401792	1587.454101	125.564989	-10.902927	1739.059284	-14.808081	-164.428437	1767.885640	-15.965012	-238.016311	1721.141877	-91.361821	-177.235562	1735.111684	-125.774645	-211.006376	1795.126405	265.557854	175.531791	1413.096467	295.214326	138.120977	1304.011466	495.120489	-19.949177	1297.060194	658.163323	-156.379793	1291.684091	652.482928	-247.834112	1271.278083	707.255479	-311.420945	1224.385982	650.005743	-244.542665	1248.206524
2550	30.389070	-250.562966	-257.285851	1556.009511	268.043679	-102.861562	1511.781880	268.063911	21.166168	1475.681023	251.838731	212.642611	1434.010669	245.174000	186.694942	1469.408205	192.950735	176.617352	1587.450094	125.555075	-10.751147	1739.095286	-14.892575	-164.297332	1767.862119	-15.948460	-237.949159	1721.189659	-91.411184	-177.203356	1735.134227	-125.827737	-210.979957	1795.128507	265.616664	175.611818	1413.068722	295.240038	138.262258	1303.916527	495.210101	-19.855199	1297.216355	658.252160	-156.392928	1292.060818	652.608224	-247.856667	1271.554336	707.318841	-311.444372	1224.541487	650.108956	-244.515528	1248.458850
